<?xml version="1.0" encoding="UTF-8"?>
<!DOCTYPE svg PUBLIC "-//W3C//DTD SVG 1.1//EN" "http://www.w3.org/Graphics/SVG/1.1/DTD/svg11.dtd">
<!-- Creator: CorelDRAW 2021 (64-Bit) -->
<svg xmlns="http://www.w3.org/2000/svg" xml:space="preserve" width="512px" height="315px" version="1.1" shape-rendering="geometricPrecision" text-rendering="geometricPrecision" image-rendering="optimizeQuality" fill-rule="evenodd" clip-rule="evenodd"
viewBox="0 0 512 314.73"
 xmlns:xlink="http://www.w3.org/1999/xlink"
 xmlns:xodm="http://www.corel.com/coreldraw/odm/2003">
 <g id="Layer_x0020_1">
  <metadata id="CorelCorpID_0Corel-Layer"/>
  <path fill="black" d="M291.45 137.3c19.97,-2.73 39.37,-6.34 59.02,-9.19 22.51,-3.3 22.95,-0.39 39.5,12.67l77.47 60.48c20.47,18.07 5,36.71 -13.38,33.41l-72.46 -51.22c-16.1,-11.35 -13.25,-9.95 -32.77,-2.6 -22.19,8.37 -46.91,19.97 -70.44,19.02 -28.77,-1.14 -35.11,-17.88 -54.83,-35 -11.66,-8.94 -22.09,-19.43 -31,-31.13 -4.88,-7.54 -10.01,-13.69 -13.12,-19.84 -2,-3.45 -3.06,-7.38 -3.06,-11.37 0,-4 1.06,-7.93 3.06,-11.38 5.68,-10.88 15.68,-28.1 30.32,-24.94l79.16 17.32c9.26,2 15.14,11.13 13.14,20.39 -2,9.26 -11.13,15.15 -20.39,13.15l-6.41 -1.4c5.75,6.71 11.14,13.92 16.19,21.63zm-251.67 134.08l47.04 -30.5 -24.97 0 0 -31.69 134.01 0 -87.1 -96.43 23.45 -21.1 106.19 117.65 128.05 0c0.02,0 0.05,0 0.07,0 4.56,0 8.89,2 11.85,5.45l99.78 56.68 33.85 0 0 43.29 -512 0 0 -43.35 39.78 0zm42.67 0.06l351.01 0 -73.48 -30.49 -230.5 0 -47.03 30.49zm62.73 -270.12c-17.12,4.52 -29.5,20.11 -29.5,38.36 0,21.91 17.77,39.68 39.69,39.68 21.91,0 39.68,-17.77 39.68,-39.68 0,-1.25 -0.06,-2.52 -0.18,-3.75 -1.96,-20.38 -19.09,-35.93 -39.56,-35.93 -3.4,0 -6.4,0.33 -10.13,1.32z"/>
 </g>
</svg>
